<svg width="50" height="50" viewBox="0 0 50 50" fill="none" xmlns="http://www.w3.org/2000/svg">
<mask id="mask0_23_37" style="mask-type:luminance" maskUnits="userSpaceOnUse" x="0" y="0" width="50" height="50">
<path d="M0 0H50V50H0V0Z" fill="white"/>
</mask>
<g mask="url(#mask0_23_37)">
<path d="M12.5158 22.3684C12.5158 24.5474 15.1131 26.3158 11.8421 26.3158C8.57233 26.3158 1.33154 23.6842 1.33154 22.3684C1.33154 21.0527 5.95654 18.4211 9.22628 18.4211C12.496 18.4211 12.5158 20.1882 12.5158 22.3684ZM38 44.8658C37.8721 44.6433 37.6805 44.4641 37.45 44.3513C35.3487 42.1066 36.8421 39.4737 36.8421 39.4737C36.8421 38.7474 38.1579 36.8421 36.8421 36.8421L35.5263 38.1579C34.2105 39.4737 34.2105 43.4211 34.2105 43.4211H31.5789C31.2299 43.4211 30.8953 43.5597 30.6485 43.8065C30.4018 44.0532 30.2631 44.3879 30.2631 44.7369C30.2631 45.0858 30.4018 45.4205 30.6485 45.6673C30.8953 45.914 31.2299 46.0527 31.5789 46.0527H33.0368L32.7447 46.2106C32.5926 46.2927 32.4583 46.404 32.3492 46.5381C32.2402 46.6722 32.1586 46.8265 32.1092 46.9921C32.0598 47.1577 32.0435 47.3315 32.0612 47.5034C32.0789 47.6753 32.1303 47.8421 32.2125 47.9941C32.2946 48.1462 32.4059 48.2805 32.54 48.3896C32.6741 48.4986 32.8284 48.5802 32.994 48.6296C33.1596 48.679 33.3334 48.6954 33.5053 48.6776C33.6772 48.6599 33.844 48.6085 33.996 48.5263L37.4684 46.6487C37.6205 46.5667 37.7549 46.4554 37.8639 46.3214C37.9729 46.1873 38.0545 46.0331 38.1039 45.8675C38.1532 45.7019 38.1695 45.5282 38.1516 45.3563C38.1338 45.1844 38.0823 45.0178 38 44.8658ZM28.7894 44.8658C28.6616 44.6433 28.47 44.4641 28.2394 44.3513C26.1381 42.1066 27.6315 39.4737 27.6315 39.4737C27.6315 38.7474 28.9473 36.8421 27.6315 36.8421L26.3158 38.1579C25 39.4737 25 43.4211 25 43.4211H22.3684C22.0194 43.4211 21.6847 43.5597 21.438 43.8065C21.1912 44.0532 21.0526 44.3879 21.0526 44.7369C21.0526 45.0858 21.1912 45.4205 21.438 45.6673C21.6847 45.914 22.0194 46.0527 22.3684 46.0527H23.8263L23.5342 46.2106C23.2271 46.3765 22.9985 46.6576 22.8987 46.9921C22.7989 47.3266 22.836 47.687 23.0019 47.9941C23.1679 48.3012 23.449 48.5298 23.7835 48.6296C24.118 48.7294 24.4784 48.6923 24.7855 48.5263L28.2579 46.6487C28.4099 46.5667 28.5443 46.4554 28.6534 46.3214C28.7624 46.1873 28.844 46.0331 28.8933 45.8675C28.9427 45.7019 28.9589 45.5282 28.9411 45.3563C28.9233 45.1844 28.8717 45.0178 28.7894 44.8658Z" fill="#FFAC33"/>
<path d="M47.6537 24.1778C45.888 24.1778 37.2537 30.2476 32.4524 17.1055C32.4458 17.087 32.438 17.0739 32.4301 17.0555C31.7792 14.7149 30.4601 12.6147 28.6343 11.0121C26.8084 9.40943 24.555 8.37375 22.1498 8.03178C18.6024 4.85284 13.1577 4.68442 13.1577 6.57915C13.1577 7.83968 14.6708 8.19363 16.5314 8.51073C11.5208 10.1384 7.89453 14.841 7.89453 20.3949C7.89453 26.2884 11.9774 31.2147 17.4656 32.5357C18.7853 38.0226 23.713 42.1055 29.6051 42.1055C34.8064 42.1055 38.7287 39.8976 41.434 36.8436C42.1643 36.0199 41.5814 37.637 42.5419 37.1528C48.1208 34.3476 49.3419 24.1778 47.6537 24.1778Z" fill="#009456"/>
<path d="M17.1053 17.1057C17.1052 17.4514 17.037 17.7937 16.9047 18.113C16.7723 18.4323 16.5784 18.7224 16.3339 18.9668C16.0894 19.2112 15.7992 19.405 15.4798 19.5372C15.1604 19.6694 14.8181 19.7374 14.4724 19.7373C14.1267 19.7372 13.7845 19.669 13.4651 19.5367C13.1458 19.4043 12.8557 19.2104 12.6113 18.9659C12.367 18.7214 12.1731 18.4312 12.0409 18.1118C11.9087 17.7924 11.8407 17.4501 11.8408 17.1044C11.841 16.4063 12.1185 15.7368 12.6122 15.2433C13.106 14.7498 13.7756 14.4727 14.4737 14.4728C15.1718 14.473 15.8413 14.7505 16.3348 15.2443C16.8283 15.738 17.1055 16.4076 17.1053 17.1057Z" fill="black"/>
<path d="M30.013 22.3687C30.013 22.3687 27.3814 35.5266 43.1709 35.5266C44.4867 35.5266 43.1709 38.1582 37.9077 38.1582C32.6446 38.1582 24.7512 31.5793 28.6972 23.6845C29.5301 22.02 30.013 22.3687 30.013 22.3687Z" fill="#008A50"/>
</g>
</svg>
