<svg width="48" height="44" viewBox="0 0 48 44" fill="none" xmlns="http://www.w3.org/2000/svg">
<path d="M11.5158 17.3683C11.5158 19.5473 14.1131 21.3157 10.8421 21.3157C7.57233 21.3157 0.331543 18.6841 0.331543 17.3683C0.331543 16.0525 4.95654 13.421 8.22628 13.421C11.496 13.421 11.5158 15.1881 11.5158 17.3683ZM37 39.8657C36.8721 39.6431 36.6805 39.464 36.45 39.3512C34.3487 37.1065 35.8421 34.4736 35.8421 34.4736C35.8421 33.7473 37.1579 31.842 35.8421 31.842L34.5263 33.1578C33.2105 34.4736 33.2105 38.421 33.2105 38.421H30.5789C30.2299 38.421 29.8953 38.5596 29.6485 38.8063C29.4018 39.0531 29.2631 39.3878 29.2631 39.7367C29.2631 40.0857 29.4018 40.4204 29.6485 40.6672C29.8953 40.9139 30.2299 41.0525 30.5789 41.0525H32.0368L31.7447 41.2104C31.5926 41.2926 31.4583 41.4039 31.3492 41.538C31.2402 41.6721 31.1586 41.8264 31.1092 41.992C31.0598 42.1576 31.0435 42.3313 31.0612 42.5033C31.0789 42.6752 31.1303 42.8419 31.2125 42.994C31.2946 43.146 31.4059 43.2804 31.54 43.3895C31.6741 43.4985 31.8284 43.5801 31.994 43.6295C32.1596 43.6789 32.3334 43.6952 32.5053 43.6775C32.6772 43.6598 32.844 43.6084 32.996 43.5262L36.4684 41.6486C36.6205 41.5665 36.7549 41.4553 36.8639 41.3212C36.9729 41.1872 37.0545 41.033 37.1039 40.8674C37.1532 40.7018 37.1695 40.5281 37.1516 40.3562C37.1338 40.1843 37.0823 40.0176 37 39.8657ZM27.7894 39.8657C27.6616 39.6431 27.47 39.464 27.2394 39.3512C25.1381 37.1065 26.6315 34.4736 26.6315 34.4736C26.6315 33.7473 27.9473 31.842 26.6315 31.842L25.3158 33.1578C24 34.4736 24 38.421 24 38.421H21.3684C21.0194 38.421 20.6847 38.5596 20.438 38.8063C20.1912 39.0531 20.0526 39.3878 20.0526 39.7367C20.0526 40.0857 20.1912 40.4204 20.438 40.6672C20.6847 40.9139 21.0194 41.0525 21.3684 41.0525H22.8263L22.5342 41.2104C22.2271 41.3764 21.9985 41.6575 21.8987 41.992C21.7989 42.3265 21.836 42.6869 22.0019 42.994C22.1679 43.3011 22.449 43.5297 22.7835 43.6295C23.118 43.7293 23.4784 43.6922 23.7855 43.5262L27.2579 41.6486C27.4099 41.5665 27.5443 41.4553 27.6534 41.3212C27.7624 41.1872 27.844 41.033 27.8933 40.8674C27.9427 40.7018 27.9589 40.5281 27.9411 40.3562C27.9233 40.1843 27.8717 40.0176 27.7894 39.8657Z" fill="#FFAC33"/>
<path d="M46.6539 19.1776C44.8881 19.1776 36.2539 25.2473 31.4525 12.1052C31.446 12.0868 31.4381 12.0736 31.4302 12.0552C30.7793 9.71461 29.4602 7.61449 27.6344 6.01184C25.8086 4.40918 23.5552 3.37351 21.1499 3.03154C17.6025 -0.147408 12.1578 -0.315826 12.1578 1.57891C12.1578 2.83944 13.671 3.19338 15.5315 3.51049C10.521 5.13812 6.89465 9.84075 6.89465 15.3947C6.89465 21.2881 10.9775 26.2144 16.4657 27.5355C17.7854 33.0223 22.7131 37.1052 28.6052 37.1052C33.8065 37.1052 37.7289 34.8973 40.4341 31.8434C41.1644 31.0197 40.5815 32.6368 41.542 32.1526C47.121 29.3473 48.342 19.1776 46.6539 19.1776Z" fill="#DD2E44"/>
<path d="M16.1053 12.1055C16.1052 12.4512 16.037 12.7934 15.9047 13.1127C15.7723 13.4321 15.5784 13.7222 15.3339 13.9666C15.0894 14.2109 14.7992 14.4047 14.4798 14.5369C14.1604 14.6691 13.8181 14.7371 13.4724 14.7371C13.1267 14.737 12.7845 14.6688 12.4651 14.5364C12.1458 14.4041 11.8557 14.2101 11.6113 13.9656C11.367 13.7211 11.1731 13.4309 11.0409 13.1115C10.9087 12.7921 10.8407 12.4498 10.8408 12.1042C10.841 11.4061 11.1185 10.7366 11.6122 10.2431C12.106 9.74957 12.7756 9.47241 13.4737 9.47259C14.1718 9.47276 14.8413 9.75025 15.3348 10.244C15.8283 10.7378 16.1055 11.4074 16.1053 12.1055Z" fill="#292F33"/>
<path d="M29.0131 17.3686C29.0131 17.3686 26.3816 30.5265 42.171 30.5265C43.4868 30.5265 42.171 33.1581 36.9079 33.1581C31.6447 33.1581 23.7513 26.5791 27.6973 18.6844C28.5302 17.0199 29.0131 17.3686 29.0131 17.3686Z" fill="#A0041E"/>
</svg>
