<svg width="36" height="36" viewBox="0 0 36 36" fill="none" xmlns="http://www.w3.org/2000/svg">
<path d="M33.2883 0.5H17.7715C17.1743 0.500662 16.6017 0.737927 16.1795 1.15974C15.7572 1.58155 15.5197 2.15347 15.519 2.75V15.5H2.75513C2.15795 15.5007 1.58542 15.7379 1.16314 16.1597C0.740872 16.5816 0.503348 17.1535 0.502686 17.75V33.25C0.502686 34.4905 1.51328 35.5 2.75513 35.5H32.4539C34.1558 35.5 35.5408 34.117 35.5408 32.4165V2.75C35.5408 1.5095 34.5302 0.5 33.2883 0.5ZM33.5386 32.4165C33.5383 32.7038 33.424 32.9792 33.2206 33.1824C33.0172 33.3855 32.7415 33.4997 32.4539 33.5H2.75513C2.68876 33.5 2.6251 33.4737 2.57816 33.4268C2.53123 33.3799 2.50486 33.3163 2.50486 33.25V17.75C2.50486 17.6837 2.53123 17.6201 2.57816 17.5732C2.6251 17.5263 2.68876 17.5 2.75513 17.5H16.5201C16.7856 17.5 17.0402 17.3946 17.228 17.2071C17.4157 17.0196 17.5212 16.7652 17.5212 16.5V2.75C17.5212 2.6837 17.5476 2.62011 17.5945 2.57322C17.6414 2.52634 17.7051 2.5 17.7715 2.5H33.2883C33.3547 2.5 33.4184 2.52634 33.4653 2.57322C33.5122 2.62011 33.5386 2.6837 33.5386 2.75V32.4165Z" fill="black"/>
<path d="M25.5299 10C25.2644 10 25.0098 10.1054 24.8221 10.2929C24.6343 10.4804 24.5289 10.7348 24.5289 11V24.75H11.5648L13.2711 23.046C13.3667 22.9538 13.443 22.8434 13.4955 22.7214C13.5479 22.5994 13.5755 22.4682 13.5767 22.3354C13.5779 22.2026 13.5525 22.0709 13.5022 21.948C13.4519 21.8251 13.3775 21.7135 13.2835 21.6196C13.1895 21.5257 13.0778 21.4515 12.9547 21.4012C12.8317 21.3509 12.6999 21.3256 12.567 21.3267C12.434 21.3279 12.3027 21.3555 12.1805 21.4079C12.0584 21.4603 11.9479 21.5365 11.8556 21.632L8.44137 25.042C8.39472 25.0889 8.3528 25.1404 8.31624 25.1955C8.29922 25.22 8.2882 25.2465 8.27419 25.272C8.25667 25.3035 8.23765 25.334 8.22414 25.3675C8.21012 25.4005 8.20261 25.4345 8.1926 25.4685C8.18409 25.497 8.17258 25.5245 8.16707 25.554C8.14125 25.6834 8.14125 25.8166 8.16707 25.946C8.17308 25.9755 8.18409 26.003 8.1921 26.031C8.20211 26.0655 8.21012 26.0995 8.22363 26.1325C8.23765 26.166 8.25667 26.1965 8.27419 26.228C8.2882 26.2535 8.29922 26.28 8.31573 26.3045C8.35277 26.3595 8.39432 26.411 8.44087 26.4575L11.8556 29.868C12.0508 30.0635 12.3071 30.161 12.5634 30.161C12.8196 30.161 13.0754 30.0635 13.2711 29.868C13.4588 29.6805 13.5642 29.4262 13.5642 29.161C13.5642 28.8958 13.4588 28.6415 13.2711 28.454L11.5648 26.75H25.5299C25.7955 26.75 26.0501 26.6446 26.2378 26.4571C26.4256 26.2696 26.531 26.0152 26.531 25.75V11C26.531 10.7348 26.4256 10.4804 26.2378 10.2929C26.0501 10.1054 25.7955 10 25.5299 10Z" fill="black"/>
</svg>
