<svg width="64" height="64" viewBox="0 0 64 64" fill="none" xmlns="http://www.w3.org/2000/svg">
<path d="M43.0998 8.22386C47.3682 3.72855 53.6132 3.6349 57.0691 7.27485C60.5338 10.921 60.4416 17.5142 56.1671 22.0095L48.9548 29.6047C48.5487 30.0468 48.3244 30.6386 48.3303 31.2525C48.3362 31.8664 48.5718 32.4533 48.9863 32.8868C49.4008 33.3203 49.9611 33.5657 50.5465 33.5702C51.1319 33.5746 51.6955 33.3377 52.1159 32.9106L59.3313 25.3154C65.0196 19.3248 65.734 9.76288 60.2332 3.96893C54.7264 -1.82815 45.6269 -1.07269 39.9326 4.91794L25.5079 20.1115C19.8196 26.1021 19.1052 35.664 24.606 41.4548C24.8115 41.6789 25.0574 41.8578 25.3295 41.9811C25.6016 42.1044 25.8943 42.1697 26.1907 42.1731C26.4871 42.1765 26.7812 42.118 27.0558 42.001C27.3304 41.8839 27.58 41.7107 27.7901 41.4914C28.0002 41.2721 28.1665 41.0112 28.2794 40.7237C28.3923 40.4363 28.4495 40.1282 28.4476 39.8173C28.4458 39.5065 28.3849 39.1991 28.2686 38.9132C28.1523 38.6273 27.9829 38.3685 27.7702 38.152C24.3054 34.5058 24.4006 27.9127 28.6721 23.4174L43.0998 8.22386Z" fill="black"/>
<path d="M39.3969 22.5408C38.9785 22.1008 38.4106 21.8531 37.818 21.8522C37.2255 21.8513 36.6568 22.0973 36.2373 22.5361C35.8177 22.9749 35.5815 23.5706 35.5806 24.192C35.5798 24.8135 35.8144 25.4098 36.2328 25.8499C39.6976 29.4961 39.6053 36.0861 35.3309 40.5845L20.9032 55.7749C16.6317 60.2702 10.3868 60.3638 6.93094 56.7239C3.46615 53.0777 3.5614 46.4846 7.83285 41.9893L15.0482 34.3941C15.2552 34.1762 15.4192 33.9177 15.5309 33.6333C15.6426 33.3489 15.6998 33.0443 15.6993 32.7367C15.6987 32.4291 15.6404 32.1247 15.5277 31.8408C15.4149 31.5568 15.25 31.299 15.0422 31.0819C14.8345 30.8648 14.588 30.6928 14.3168 30.5756C14.0457 30.4585 13.7552 30.3985 13.4619 30.399C13.1686 30.3996 12.8783 30.4608 12.6076 30.579C12.3369 30.6972 12.091 30.8703 11.884 31.0881L4.66871 38.6833C-1.01961 44.6771 -1.734 54.2359 3.76679 60.0298C9.27354 65.83 18.3731 65.0714 24.0673 59.0808L38.495 43.8873C44.1833 37.8998 44.8977 28.3316 39.3969 22.5408Z" fill="black"/>
</svg>
