<svg width="31" height="31" viewBox="0 0 31 31" fill="none" xmlns="http://www.w3.org/2000/svg">
<path d="M20.2454 4.6136C22.2463 2.50643 25.1736 2.46253 26.7935 4.16875C28.4176 5.87791 28.3744 8.96843 26.3707 11.0756L22.99 14.6359C22.7996 14.8431 22.6945 15.1205 22.6972 15.4083C22.7 15.696 22.8104 15.9712 23.0047 16.1744C23.199 16.3776 23.4617 16.4926 23.7361 16.4947C24.0105 16.4968 24.2747 16.3857 24.4718 16.1855L27.8539 12.6253C30.5203 9.81715 30.8552 5.33502 28.2767 2.6191C25.6954 -0.0982777 21.43 0.255845 18.7608 3.06395L11.9992 10.1859C9.33285 12.994 8.99798 17.4761 11.5765 20.1906C11.6728 20.2956 11.7881 20.3795 11.9156 20.4373C12.0431 20.4951 12.1804 20.5257 12.3193 20.5273C12.4582 20.5289 12.5961 20.5015 12.7248 20.4466C12.8535 20.3918 12.9705 20.3106 13.069 20.2078C13.1675 20.105 13.2454 19.9826 13.2984 19.8479C13.3513 19.7132 13.3781 19.5687 13.3772 19.423C13.3764 19.2773 13.3478 19.1333 13.2933 18.9992C13.2388 18.8652 13.1594 18.7439 13.0597 18.6424C11.4356 16.9333 11.4802 13.8427 13.4824 11.7356L20.2454 4.6136Z" fill="#94A3B8"/>
<path d="M18.5097 11.3246C18.3135 11.1184 18.0473 11.0022 17.7696 11.0018C17.4918 11.0014 17.2253 11.1167 17.0286 11.3224C16.8319 11.5281 16.7212 11.8073 16.7208 12.0986C16.7204 12.3899 16.8303 12.6695 17.0265 12.8757C18.6506 14.5849 18.6073 17.674 16.6037 19.7826L9.84073 26.9031C7.83849 29.0103 4.91117 29.0542 3.29124 27.3479C1.66712 25.6388 1.71177 22.5483 3.71401 20.4411L7.09619 16.8808C7.19321 16.7787 7.2701 16.6575 7.32247 16.5242C7.37484 16.3909 7.40166 16.2481 7.4014 16.1039C7.40114 15.9598 7.37381 15.8171 7.32096 15.684C7.26812 15.5509 7.19079 15.43 7.0934 15.3283C6.99602 15.2265 6.88047 15.1459 6.75337 15.091C6.62626 15.036 6.49009 15.0079 6.35262 15.0082C6.21516 15.0085 6.07908 15.0371 5.95218 15.0925C5.82527 15.148 5.71002 15.2291 5.613 15.3312L2.23081 18.8914C-0.435586 21.701 -0.770456 26.1817 1.80804 28.8976C4.38933 31.6164 8.65473 31.2609 11.3239 28.4527L18.0869 21.3308C20.7533 18.5241 21.0882 14.0391 18.5097 11.3246Z" fill="#94A3B8"/>
</svg>
