<svg width="64" height="64" viewBox="0 0 64 64" fill="none" xmlns="http://www.w3.org/2000/svg">
<path d="M0 6.23395C0 1.22815 5.61067 -1.72982 9.74222 1.10016L47.0684 26.6767C47.8992 27.246 48.5792 28.0085 49.0503 28.8986C49.5213 29.7887 49.7692 30.7799 49.7727 31.7869C49.7762 32.794 49.5352 33.7868 49.0703 34.6802C48.6055 35.5735 47.9307 36.3407 47.104 36.9158L9.77422 62.8763C5.65333 65.7454 0 62.7874 0 57.7674V6.23395ZM64 2.66803C64 1.96084 63.7191 1.28262 63.219 0.782568C62.7189 0.282513 62.0406 0.00158563 61.3333 0.00158563C60.6261 0.00158563 59.9478 0.282513 59.4477 0.782568C58.9476 1.28262 58.6667 1.96084 58.6667 2.66803V61.3298C58.6667 62.037 58.9476 62.7152 59.4477 63.2152C59.9478 63.7153 60.6261 63.9962 61.3333 63.9962C62.0406 63.9962 62.7189 63.7153 63.219 63.2152C63.7191 62.7152 64 62.037 64 61.3298V2.66803Z" fill="black"/>
</svg>
