<svg width="64" height="64" viewBox="0 0 64 64" fill="none" xmlns="http://www.w3.org/2000/svg">
<path d="M0 12.8C0 6.7648 -1.19209e-07 3.7504 1.8752 1.8752C3.7504 -1.19209e-07 6.7648 0 12.8 0C18.8352 0 21.8496 -1.19209e-07 23.7248 1.8752C25.6 3.7504 25.6 6.7648 25.6 12.8V51.2C25.6 57.2352 25.6 60.2496 23.7248 62.1248C21.8496 64 18.8352 64 12.8 64C6.7648 64 3.7504 64 1.8752 62.1248C-1.19209e-07 60.2496 0 57.2352 0 51.2V12.8ZM38.4 12.8C38.4 6.7648 38.4 3.7504 40.2752 1.8752C42.1504 -1.19209e-07 45.1648 0 51.2 0C57.2352 0 60.2496 -1.19209e-07 62.1248 1.8752C64 3.7504 64 6.7648 64 12.8V51.2C64 57.2352 64 60.2496 62.1248 62.1248C60.2496 64 57.2352 64 51.2 64C45.1648 64 42.1504 64 40.2752 62.1248C38.4 60.2496 38.4 57.2352 38.4 51.2V12.8Z" fill="black"/>
</svg>
