<svg width="64" height="64" viewBox="0 0 64 64" fill="none" xmlns="http://www.w3.org/2000/svg">
<path d="M64 32C64.0024 32.8357 63.7491 33.6578 63.2648 34.3862C62.7806 35.1146 62.0817 35.7245 61.2363 36.1567L8.84363 63.2754C7.96031 63.7331 6.94861 63.9829 5.91301 63.9992C4.87741 64.0154 3.85547 63.7974 2.95273 63.3677C2.05858 62.9447 1.31373 62.3278 0.794777 61.5805C0.275823 60.8332 0.00149403 59.9824 0 59.1156V4.88438C0.00149403 4.0176 0.275823 3.16681 0.794777 2.41948C1.31373 1.67216 2.05858 1.05528 2.95273 0.632275C3.85547 0.202598 4.87741 -0.0153824 5.91301 0.000844102C6.94861 0.0170706 7.96031 0.266917 8.84363 0.724578L61.2363 27.8433C62.0817 28.2755 62.7806 28.8854 63.2648 29.6138C63.7491 30.3422 64.0024 31.1643 64 32Z" fill="black"/>
</svg>
