<svg width="64" height="64" viewBox="0 0 64 64" fill="none" xmlns="http://www.w3.org/2000/svg">
<path d="M64 5.34268C64 4.36481 63.7309 3.40577 63.2224 2.57048C62.7138 1.73518 61.9853 1.0558 61.1164 0.606632C60.2476 0.157465 59.272 -0.0441859 58.2962 0.0237381C57.3205 0.091662 56.3822 0.426545 55.584 0.991755L18.2507 27.4545C17.5572 27.9448 16.9908 28.5935 16.5988 29.3468C16.2067 30.1001 16.0002 30.9361 15.9966 31.7852C15.9929 32.6343 16.1922 33.4721 16.5778 34.2287C16.9633 34.9853 17.5241 35.6389 18.2133 36.1351L55.5467 62.9924C56.3431 63.5668 57.2827 63.9101 58.2619 63.9846C59.2411 64.0591 60.2218 63.8619 61.096 63.4147C61.9703 62.9675 62.704 62.2877 63.2164 61.4502C63.7288 60.6126 64 59.6499 64 58.6682V5.34268ZM0 2.66601C0 1.95894 0.280952 1.28083 0.781049 0.780856C1.28115 0.280883 1.95942 0 2.66667 0C3.37391 0 4.05219 0.280883 4.55228 0.780856C5.05238 1.28083 5.33333 1.95894 5.33333 2.66601V61.3182C5.33333 62.0252 5.05238 62.7034 4.55228 63.2033C4.05219 63.7033 3.37391 63.9842 2.66667 63.9842C1.95942 63.9842 1.28115 63.7033 0.781049 63.2033C0.280952 62.7034 0 62.0252 0 61.3182V2.66601Z" fill="black"/>
</svg>
