<svg width="30" height="28" viewBox="0 0 30 28" fill="none" xmlns="http://www.w3.org/2000/svg">
<path d="M18 1.15448C18 0.950218 17.9531 0.749599 17.8641 0.5731C17.775 0.396602 17.647 0.250543 17.493 0.149832C17.3391 0.0491211 17.1648 -0.00263678 16.9879 -0.000159192C16.811 0.00231839 16.6378 0.0589427 16.486 0.163935L6.724 6.92229H3C2.20435 6.92229 1.44129 7.28719 0.87868 7.93671C0.31607 8.58623 0 9.46718 0 10.3857L0 19.6147C0 21.5311 1.344 23.0781 3 23.0781H6.724L16.484 29.8342C16.6358 29.9398 16.8092 29.9969 16.9864 29.9996C17.1636 30.0024 17.3383 29.9508 17.4925 29.85C17.6468 29.7492 17.7751 29.6029 17.8642 29.4261C17.9534 29.2493 18.0003 29.0483 18 28.8436V1.15448ZM28 2.30897V27.7076H30V2.30897H28ZM24 6.92691V23.0897H26V6.92691H24ZM20 11.5448V18.4718H22V11.5448H20Z" fill="#94A3B8"/>
</svg>
