<svg width="30" height="26" viewBox="0 0 30 26" fill="none" xmlns="http://www.w3.org/2000/svg">
<path d="M18 0.999966C18 0.823034 17.9531 0.64926 17.8641 0.496379C17.775 0.343499 17.647 0.216985 17.493 0.12975C17.3391 0.0425154 17.1648 -0.00231661 16.9879 -0.000170559C16.811 0.00197549 16.6378 0.0510228 16.486 0.141966L6.724 5.99597H3C2.20435 5.99597 1.44129 6.31204 0.87868 6.87465C0.31607 7.43725 0 8.20032 0 8.99597L0 16.99C0 18.65 1.344 19.99 3 19.99H6.724L16.484 25.842C16.6358 25.9334 16.8092 25.9829 16.9864 25.9853C17.1636 25.9877 17.3383 25.943 17.4925 25.8557C17.6468 25.7684 17.7751 25.6416 17.8642 25.4885C17.9534 25.3353 18.0002 25.1612 18 24.984V0.999966ZM28 1.99997V24H30V1.99997H28ZM24 5.99997V20H26V5.99997H24ZM20 9.99997V16H22V9.99997H20Z" fill="black"/>
</svg>
